<mxfile host="app.diagrams.net" modified="2024-02-28T14:13:44.711Z" agent="Mozilla/5.0 (Windows NT 10.0; Win64; x64) AppleWebKit/537.36 (KHTML, like Gecko) Chrome/122.0.0.0 Safari/537.36" etag="Oy9tKvID9adWegYuEj_3" version="23.1.7" type="github">
  <diagram name="第 1 页" id="pOhemrQefRRCKWLIQrDJ">
    <mxGraphModel dx="794" dy="464" grid="0" gridSize="10" guides="1" tooltips="1" connect="1" arrows="0" fold="1" page="1" pageScale="1" pageWidth="827" pageHeight="1169" math="0" shadow="0">
      <root>
        <mxCell id="0" />
        <mxCell id="1" parent="0" />
        <mxCell id="lPp1sTcMWEoaJZxOKv3c-8" style="rounded=0;orthogonalLoop=1;jettySize=auto;html=1;exitX=1;exitY=0.5;exitDx=0;exitDy=0;entryX=0;entryY=0.25;entryDx=0;entryDy=0;" parent="1" source="lPp1sTcMWEoaJZxOKv3c-1" target="lPp1sTcMWEoaJZxOKv3c-5" edge="1">
          <mxGeometry relative="1" as="geometry">
            <mxPoint x="259" y="120" as="targetPoint" />
          </mxGeometry>
        </mxCell>
        <mxCell id="lPp1sTcMWEoaJZxOKv3c-1" value="服务1" style="rounded=1;whiteSpace=wrap;html=1;strokeWidth=2;fillWeight=4;hachureGap=8;hachureAngle=45;shadow=0;recursiveResize=1;sketch=1;curveFitting=1;jiggle=2;" parent="1" vertex="1">
          <mxGeometry x="120" y="40" width="70" height="40" as="geometry" />
        </mxCell>
        <mxCell id="lPp1sTcMWEoaJZxOKv3c-2" value="服务2" style="rounded=1;whiteSpace=wrap;html=1;strokeWidth=2;fillWeight=4;hachureGap=8;hachureAngle=45;shadow=0;sketch=1;curveFitting=1;jiggle=2;recursiveResize=1;" parent="1" vertex="1">
          <mxGeometry x="120" y="110" width="70" height="40" as="geometry" />
        </mxCell>
        <mxCell id="lPp1sTcMWEoaJZxOKv3c-3" value="服务N" style="rounded=1;whiteSpace=wrap;html=1;strokeWidth=2;fillWeight=4;hachureGap=8;hachureAngle=45;shadow=0;sketch=1;curveFitting=1;jiggle=2;recursiveResize=1;" parent="1" vertex="1">
          <mxGeometry x="120" y="190" width="70" height="40" as="geometry" />
        </mxCell>
        <mxCell id="lPp1sTcMWEoaJZxOKv3c-4" value="&lt;span style=&quot;&quot;&gt;...&lt;/span&gt;" style="text;strokeColor=none;fillColor=none;html=1;fontSize=24;fontStyle=0;verticalAlign=middle;align=center;" parent="1" vertex="1">
          <mxGeometry x="110" y="150" width="80" height="30" as="geometry" />
        </mxCell>
        <mxCell id="lPp1sTcMWEoaJZxOKv3c-5" value="计数器系统" style="rounded=1;whiteSpace=wrap;html=1;strokeWidth=2;fillWeight=4;hachureGap=8;hachureAngle=45;fillColor=#d5e8d4;strokeColor=#82b366;shadow=0;sketch=1;curveFitting=1;jiggle=2;" parent="1" vertex="1">
          <mxGeometry x="269" y="100" width="120" height="60" as="geometry" />
        </mxCell>
        <mxCell id="lPp1sTcMWEoaJZxOKv3c-6" value="DB" style="shape=cylinder3;whiteSpace=wrap;html=1;boundedLbl=1;backgroundOutline=1;size=15;fillColor=#dae8fc;strokeColor=#6c8ebf;" parent="1" vertex="1">
          <mxGeometry x="469" y="90" width="60" height="80" as="geometry" />
        </mxCell>
        <mxCell id="lPp1sTcMWEoaJZxOKv3c-7" style="edgeStyle=orthogonalEdgeStyle;rounded=0;orthogonalLoop=1;jettySize=auto;html=1;exitX=1;exitY=0.5;exitDx=0;exitDy=0;entryX=0;entryY=0.5;entryDx=0;entryDy=0;entryPerimeter=0;" parent="1" source="lPp1sTcMWEoaJZxOKv3c-5" target="lPp1sTcMWEoaJZxOKv3c-6" edge="1">
          <mxGeometry relative="1" as="geometry" />
        </mxCell>
        <mxCell id="lPp1sTcMWEoaJZxOKv3c-9" style="rounded=0;orthogonalLoop=1;jettySize=auto;html=1;exitX=1;exitY=0.5;exitDx=0;exitDy=0;entryX=0;entryY=0.5;entryDx=0;entryDy=0;" parent="1" source="lPp1sTcMWEoaJZxOKv3c-2" target="lPp1sTcMWEoaJZxOKv3c-5" edge="1">
          <mxGeometry relative="1" as="geometry">
            <mxPoint x="200" y="70" as="sourcePoint" />
            <mxPoint x="279" y="140" as="targetPoint" />
          </mxGeometry>
        </mxCell>
        <mxCell id="lPp1sTcMWEoaJZxOKv3c-10" style="rounded=0;orthogonalLoop=1;jettySize=auto;html=1;exitX=1;exitY=0.5;exitDx=0;exitDy=0;entryX=0;entryY=0.75;entryDx=0;entryDy=0;" parent="1" source="lPp1sTcMWEoaJZxOKv3c-3" target="lPp1sTcMWEoaJZxOKv3c-5" edge="1">
          <mxGeometry relative="1" as="geometry">
            <mxPoint x="200" y="70" as="sourcePoint" />
            <mxPoint x="259" y="140" as="targetPoint" />
          </mxGeometry>
        </mxCell>
        <mxCell id="lPp1sTcMWEoaJZxOKv3c-11" style="rounded=0;orthogonalLoop=1;jettySize=auto;html=1;exitX=1;exitY=0.5;exitDx=0;exitDy=0;entryX=0;entryY=0.25;entryDx=0;entryDy=0;" parent="1" source="lPp1sTcMWEoaJZxOKv3c-12" target="lPp1sTcMWEoaJZxOKv3c-16" edge="1">
          <mxGeometry relative="1" as="geometry">
            <mxPoint x="175" y="579" as="targetPoint" />
          </mxGeometry>
        </mxCell>
        <mxCell id="lPp1sTcMWEoaJZxOKv3c-12" value="服务1" style="rounded=1;whiteSpace=wrap;html=1;strokeWidth=2;fillWeight=4;hachureGap=8;hachureAngle=45;shadow=0;recursiveResize=1;sketch=1;curveFitting=1;jiggle=2;" parent="1" vertex="1">
          <mxGeometry x="36" y="499" width="70" height="40" as="geometry" />
        </mxCell>
        <mxCell id="lPp1sTcMWEoaJZxOKv3c-13" value="服务2" style="rounded=1;whiteSpace=wrap;html=1;strokeWidth=2;fillWeight=4;hachureGap=8;hachureAngle=45;shadow=0;sketch=1;curveFitting=1;jiggle=2;recursiveResize=1;" parent="1" vertex="1">
          <mxGeometry x="36" y="569" width="70" height="40" as="geometry" />
        </mxCell>
        <mxCell id="lPp1sTcMWEoaJZxOKv3c-14" value="服务N" style="rounded=1;whiteSpace=wrap;html=1;strokeWidth=2;fillWeight=4;hachureGap=8;hachureAngle=45;shadow=0;sketch=1;curveFitting=1;jiggle=2;recursiveResize=1;" parent="1" vertex="1">
          <mxGeometry x="36" y="649" width="70" height="40" as="geometry" />
        </mxCell>
        <mxCell id="lPp1sTcMWEoaJZxOKv3c-15" value="&lt;span style=&quot;&quot;&gt;...&lt;/span&gt;" style="text;strokeColor=none;fillColor=none;html=1;fontSize=24;fontStyle=0;verticalAlign=middle;align=center;" parent="1" vertex="1">
          <mxGeometry x="26" y="609" width="80" height="30" as="geometry" />
        </mxCell>
        <mxCell id="lPp1sTcMWEoaJZxOKv3c-37" style="rounded=0;orthogonalLoop=1;jettySize=auto;html=1;exitX=1;exitY=0.5;exitDx=0;exitDy=0;entryX=0;entryY=0.5;entryDx=0;entryDy=0;" parent="1" source="lPp1sTcMWEoaJZxOKv3c-16" target="lPp1sTcMWEoaJZxOKv3c-24" edge="1">
          <mxGeometry relative="1" as="geometry" />
        </mxCell>
        <mxCell id="lPp1sTcMWEoaJZxOKv3c-16" value="负载均衡器" style="rounded=1;whiteSpace=wrap;html=1;strokeWidth=2;fillWeight=4;hachureGap=8;hachureAngle=45;shadow=0;sketch=1;curveFitting=1;jiggle=2;" parent="1" vertex="1">
          <mxGeometry x="142" y="566" width="70" height="42" as="geometry" />
        </mxCell>
        <mxCell id="lPp1sTcMWEoaJZxOKv3c-19" style="rounded=0;orthogonalLoop=1;jettySize=auto;html=1;exitX=1;exitY=0.5;exitDx=0;exitDy=0;entryX=0;entryY=0.5;entryDx=0;entryDy=0;" parent="1" source="lPp1sTcMWEoaJZxOKv3c-13" target="lPp1sTcMWEoaJZxOKv3c-16" edge="1">
          <mxGeometry relative="1" as="geometry">
            <mxPoint x="116" y="529" as="sourcePoint" />
            <mxPoint x="195" y="599" as="targetPoint" />
          </mxGeometry>
        </mxCell>
        <mxCell id="lPp1sTcMWEoaJZxOKv3c-20" style="rounded=0;orthogonalLoop=1;jettySize=auto;html=1;exitX=1;exitY=0.5;exitDx=0;exitDy=0;entryX=0;entryY=0.75;entryDx=0;entryDy=0;" parent="1" source="lPp1sTcMWEoaJZxOKv3c-14" target="lPp1sTcMWEoaJZxOKv3c-16" edge="1">
          <mxGeometry relative="1" as="geometry">
            <mxPoint x="116" y="529" as="sourcePoint" />
            <mxPoint x="175" y="599" as="targetPoint" />
          </mxGeometry>
        </mxCell>
        <mxCell id="lPp1sTcMWEoaJZxOKv3c-48" value="" style="edgeStyle=orthogonalEdgeStyle;rounded=0;orthogonalLoop=1;jettySize=auto;html=1;" parent="1" source="lPp1sTcMWEoaJZxOKv3c-24" target="lPp1sTcMWEoaJZxOKv3c-47" edge="1">
          <mxGeometry relative="1" as="geometry" />
        </mxCell>
        <mxCell id="lPp1sTcMWEoaJZxOKv3c-40" value="" style="rounded=0;orthogonalLoop=1;jettySize=auto;html=1;exitX=0.444;exitY=1.033;exitDx=0;exitDy=0;exitPerimeter=0;" parent="1" source="lPp1sTcMWEoaJZxOKv3c-24" target="lPp1sTcMWEoaJZxOKv3c-39" edge="1">
          <mxGeometry relative="1" as="geometry" />
        </mxCell>
        <mxCell id="lPp1sTcMWEoaJZxOKv3c-41" value="" style="edgeStyle=orthogonalEdgeStyle;rounded=0;orthogonalLoop=1;jettySize=auto;html=1;" parent="1" source="lPp1sTcMWEoaJZxOKv3c-39" target="lPp1sTcMWEoaJZxOKv3c-38" edge="1">
          <mxGeometry relative="1" as="geometry" />
        </mxCell>
        <mxCell id="lPp1sTcMWEoaJZxOKv3c-43" value="" style="edgeStyle=orthogonalEdgeStyle;rounded=0;orthogonalLoop=1;jettySize=auto;html=1;" parent="1" source="lPp1sTcMWEoaJZxOKv3c-42" target="lPp1sTcMWEoaJZxOKv3c-17" edge="1">
          <mxGeometry relative="1" as="geometry" />
        </mxCell>
        <mxCell id="lPp1sTcMWEoaJZxOKv3c-60" style="edgeStyle=orthogonalEdgeStyle;rounded=0;orthogonalLoop=1;jettySize=auto;html=1;exitX=1;exitY=0.5;exitDx=0;exitDy=0;entryX=0;entryY=0.5;entryDx=0;entryDy=0;" parent="1" source="lPp1sTcMWEoaJZxOKv3c-47" target="lPp1sTcMWEoaJZxOKv3c-50" edge="1">
          <mxGeometry relative="1" as="geometry" />
        </mxCell>
        <mxCell id="lPp1sTcMWEoaJZxOKv3c-47" value="消息队列" style="shape=partialRectangle;whiteSpace=wrap;html=1;left=0;right=0;fillColor=#f5f5f5;strokeColor=#666666;shadow=0;fontColor=#333333;" parent="1" vertex="1">
          <mxGeometry x="441" y="574.88" width="67" height="25.12" as="geometry" />
        </mxCell>
        <mxCell id="lPp1sTcMWEoaJZxOKv3c-55" value="" style="group" parent="1" vertex="1" connectable="0">
          <mxGeometry x="237" y="532.25" width="174" height="109.5" as="geometry" />
        </mxCell>
        <mxCell id="lPp1sTcMWEoaJZxOKv3c-24" value="" style="rounded=1;whiteSpace=wrap;html=1;strokeWidth=2;fillWeight=4;hachureGap=8;hachureAngle=45;shadow=0;dashed=1;" parent="lPp1sTcMWEoaJZxOKv3c-55" vertex="1">
          <mxGeometry width="174" height="109.5" as="geometry" />
        </mxCell>
        <mxCell id="lPp1sTcMWEoaJZxOKv3c-28" value="计数服务器" style="text;html=1;align=center;verticalAlign=middle;resizable=0;points=[];autosize=1;strokeColor=none;fillColor=none;" parent="lPp1sTcMWEoaJZxOKv3c-55" vertex="1">
          <mxGeometry x="25.777777777777775" y="82.57377049180329" width="78" height="26" as="geometry" />
        </mxCell>
        <mxCell id="lPp1sTcMWEoaJZxOKv3c-30" value="" style="rounded=1;whiteSpace=wrap;html=1;strokeWidth=2;fillWeight=4;hachureGap=8;hachureAngle=45;sketch=1;fillColor=#d5e8d4;strokeColor=#82b366;" parent="lPp1sTcMWEoaJZxOKv3c-55" vertex="1">
          <mxGeometry x="13.809523809523808" y="9.872950819672132" width="24.857142857142854" height="67.31557377049181" as="geometry" />
        </mxCell>
        <mxCell id="lPp1sTcMWEoaJZxOKv3c-32" value="" style="rounded=1;whiteSpace=wrap;html=1;strokeWidth=2;fillWeight=4;hachureGap=8;hachureAngle=45;sketch=1;fillColor=#d5e8d4;strokeColor=#82b366;" parent="lPp1sTcMWEoaJZxOKv3c-55" vertex="1">
          <mxGeometry x="46.03174603174603" y="11.668032786885247" width="24.857142857142854" height="67.31557377049181" as="geometry" />
        </mxCell>
        <mxCell id="lPp1sTcMWEoaJZxOKv3c-33" value="" style="rounded=1;whiteSpace=wrap;html=1;strokeWidth=2;fillWeight=4;hachureGap=8;hachureAngle=45;sketch=1;fillColor=#d5e8d4;strokeColor=#82b366;" parent="lPp1sTcMWEoaJZxOKv3c-55" vertex="1">
          <mxGeometry x="80.09523809523809" y="11.668032786885247" width="24.857142857142854" height="67.31557377049181" as="geometry" />
        </mxCell>
        <mxCell id="lPp1sTcMWEoaJZxOKv3c-45" value="身份校验" style="rounded=0;whiteSpace=wrap;html=1;" parent="lPp1sTcMWEoaJZxOKv3c-55" vertex="1">
          <mxGeometry x="113.23809523809523" y="23.336065573770494" width="49.71428571428571" height="19.745901639344265" as="geometry" />
        </mxCell>
        <mxCell id="lPp1sTcMWEoaJZxOKv3c-46" value="流量控制" style="rounded=0;whiteSpace=wrap;html=1;" parent="lPp1sTcMWEoaJZxOKv3c-55" vertex="1">
          <mxGeometry x="113.23809523809523" y="54.75" width="49.71428571428571" height="19.745901639344265" as="geometry" />
        </mxCell>
        <mxCell id="lPp1sTcMWEoaJZxOKv3c-56" value="" style="group" parent="1" vertex="1" connectable="0">
          <mxGeometry x="543" y="551.75" width="100" height="76" as="geometry" />
        </mxCell>
        <mxCell id="lPp1sTcMWEoaJZxOKv3c-50" value="" style="rounded=1;whiteSpace=wrap;html=1;strokeWidth=2;fillWeight=4;hachureGap=8;hachureAngle=45;shadow=0;dashed=1;" parent="lPp1sTcMWEoaJZxOKv3c-56" vertex="1">
          <mxGeometry width="100" height="73.03896103896105" as="geometry" />
        </mxCell>
        <mxCell id="lPp1sTcMWEoaJZxOKv3c-51" value="" style="rounded=1;whiteSpace=wrap;html=1;strokeWidth=2;fillWeight=4;hachureGap=8;hachureAngle=45;sketch=1;fillColor=#dae8fc;strokeColor=#6c8ebf;" parent="lPp1sTcMWEoaJZxOKv3c-56" vertex="1">
          <mxGeometry x="11.278195488721803" y="7.238095238095238" width="20.300751879699245" height="49.35064935064935" as="geometry" />
        </mxCell>
        <mxCell id="lPp1sTcMWEoaJZxOKv3c-52" value="" style="rounded=1;whiteSpace=wrap;html=1;strokeWidth=2;fillWeight=4;hachureGap=8;hachureAngle=45;sketch=1;fillColor=#dae8fc;strokeColor=#6c8ebf;" parent="lPp1sTcMWEoaJZxOKv3c-56" vertex="1">
          <mxGeometry x="37.59398496240601" y="8.554112554112553" width="20.300751879699245" height="49.35064935064935" as="geometry" />
        </mxCell>
        <mxCell id="lPp1sTcMWEoaJZxOKv3c-53" value="" style="rounded=1;whiteSpace=wrap;html=1;strokeWidth=2;fillWeight=4;hachureGap=8;hachureAngle=45;sketch=1;fillColor=#dae8fc;strokeColor=#6c8ebf;" parent="lPp1sTcMWEoaJZxOKv3c-56" vertex="1">
          <mxGeometry x="65.41353383458646" y="8.554112554112553" width="20.300751879699245" height="49.35064935064935" as="geometry" />
        </mxCell>
        <mxCell id="lPp1sTcMWEoaJZxOKv3c-54" value="Worker" style="text;html=1;align=center;verticalAlign=middle;resizable=0;points=[];autosize=1;strokeColor=none;fillColor=none;" parent="lPp1sTcMWEoaJZxOKv3c-56" vertex="1">
          <mxGeometry x="16.99578947368421" y="53.001774891774886" width="56" height="26" as="geometry" />
        </mxCell>
        <mxCell id="lPp1sTcMWEoaJZxOKv3c-61" value="" style="edgeStyle=orthogonalEdgeStyle;rounded=0;orthogonalLoop=1;jettySize=auto;html=1;" parent="1" source="lPp1sTcMWEoaJZxOKv3c-50" target="lPp1sTcMWEoaJZxOKv3c-42" edge="1">
          <mxGeometry relative="1" as="geometry" />
        </mxCell>
        <mxCell id="lPp1sTcMWEoaJZxOKv3c-64" value="" style="group" parent="1" vertex="1" connectable="0">
          <mxGeometry x="292.75" y="667" width="51" height="51" as="geometry" />
        </mxCell>
        <mxCell id="lPp1sTcMWEoaJZxOKv3c-39" value="cache" style="whiteSpace=wrap;html=1;aspect=fixed;sketch=1;curveFitting=1;jiggle=2;" parent="lPp1sTcMWEoaJZxOKv3c-64" vertex="1">
          <mxGeometry width="41" height="41" as="geometry" />
        </mxCell>
        <mxCell id="lPp1sTcMWEoaJZxOKv3c-63" value="cache" style="whiteSpace=wrap;html=1;aspect=fixed;sketch=1;curveFitting=1;jiggle=2;" parent="lPp1sTcMWEoaJZxOKv3c-64" vertex="1">
          <mxGeometry x="10" y="10" width="41" height="41" as="geometry" />
        </mxCell>
        <mxCell id="lPp1sTcMWEoaJZxOKv3c-65" value="" style="group" parent="1" vertex="1" connectable="0">
          <mxGeometry x="291" y="738" width="55.75" height="70" as="geometry" />
        </mxCell>
        <mxCell id="lPp1sTcMWEoaJZxOKv3c-38" value="会话DB" style="shape=cylinder3;whiteSpace=wrap;html=1;boundedLbl=1;backgroundOutline=1;size=15;fillColor=#dae8fc;strokeColor=#6c8ebf;" parent="lPp1sTcMWEoaJZxOKv3c-65" vertex="1">
          <mxGeometry width="45.5" height="62" as="geometry" />
        </mxCell>
        <mxCell id="lPp1sTcMWEoaJZxOKv3c-62" value="会话DB" style="shape=cylinder3;whiteSpace=wrap;html=1;boundedLbl=1;backgroundOutline=1;size=15;fillColor=#dae8fc;strokeColor=#6c8ebf;" parent="lPp1sTcMWEoaJZxOKv3c-65" vertex="1">
          <mxGeometry x="10.25" y="8" width="45.5" height="62" as="geometry" />
        </mxCell>
        <mxCell id="lPp1sTcMWEoaJZxOKv3c-67" value="" style="group" parent="1" vertex="1" connectable="0">
          <mxGeometry x="673" y="566.5" width="47" height="49.379999999999995" as="geometry" />
        </mxCell>
        <mxCell id="lPp1sTcMWEoaJZxOKv3c-42" value="cache" style="whiteSpace=wrap;html=1;aspect=fixed;sketch=1;curveFitting=1;jiggle=2;" parent="lPp1sTcMWEoaJZxOKv3c-67" vertex="1">
          <mxGeometry width="41" height="41" as="geometry" />
        </mxCell>
        <mxCell id="lPp1sTcMWEoaJZxOKv3c-66" value="cache" style="whiteSpace=wrap;html=1;aspect=fixed;sketch=1;curveFitting=1;jiggle=2;" parent="lPp1sTcMWEoaJZxOKv3c-67" vertex="1">
          <mxGeometry x="6" y="8.379999999999995" width="41" height="41" as="geometry" />
        </mxCell>
        <mxCell id="lPp1sTcMWEoaJZxOKv3c-69" value="" style="group" parent="1" vertex="1" connectable="0">
          <mxGeometry x="744" y="547" width="67" height="92" as="geometry" />
        </mxCell>
        <mxCell id="lPp1sTcMWEoaJZxOKv3c-17" value="DB" style="shape=cylinder3;whiteSpace=wrap;html=1;boundedLbl=1;backgroundOutline=1;size=15;fillColor=#dae8fc;strokeColor=#6c8ebf;" parent="lPp1sTcMWEoaJZxOKv3c-69" vertex="1">
          <mxGeometry width="60" height="80" as="geometry" />
        </mxCell>
        <mxCell id="lPp1sTcMWEoaJZxOKv3c-68" value="DB" style="shape=cylinder3;whiteSpace=wrap;html=1;boundedLbl=1;backgroundOutline=1;size=15;fillColor=#dae8fc;strokeColor=#6c8ebf;" parent="lPp1sTcMWEoaJZxOKv3c-69" vertex="1">
          <mxGeometry x="7" y="12" width="60" height="80" as="geometry" />
        </mxCell>
        <mxCell id="lPp1sTcMWEoaJZxOKv3c-116" value="数据中心2" style="rounded=0;whiteSpace=wrap;html=1;dashed=1;" parent="1" vertex="1">
          <mxGeometry x="143" y="1257" width="679" height="78" as="geometry" />
        </mxCell>
        <mxCell id="lPp1sTcMWEoaJZxOKv3c-117" value="" style="image;aspect=fixed;html=1;points=[];align=center;fontSize=12;image=img/lib/azure2/networking/DNS_Zones.svg;" parent="1" vertex="1">
          <mxGeometry x="44" y="835" width="64" height="64" as="geometry" />
        </mxCell>
        <mxCell id="lPp1sTcMWEoaJZxOKv3c-118" value="" style="edgeStyle=orthogonalEdgeStyle;rounded=0;orthogonalLoop=1;jettySize=auto;html=1;" parent="1" source="lPp1sTcMWEoaJZxOKv3c-71" target="lPp1sTcMWEoaJZxOKv3c-117" edge="1">
          <mxGeometry relative="1" as="geometry" />
        </mxCell>
        <mxCell id="lPp1sTcMWEoaJZxOKv3c-114" value="数据中心1" style="rounded=0;whiteSpace=wrap;html=1;dashed=1;" parent="1" vertex="1">
          <mxGeometry x="142" y="942" width="680" height="300" as="geometry" />
        </mxCell>
        <mxCell id="lPp1sTcMWEoaJZxOKv3c-71" value="服务1" style="rounded=1;whiteSpace=wrap;html=1;strokeWidth=2;fillWeight=4;hachureGap=8;hachureAngle=45;shadow=0;recursiveResize=1;sketch=1;curveFitting=1;jiggle=2;" parent="1" vertex="1">
          <mxGeometry x="41" y="930" width="70" height="40" as="geometry" />
        </mxCell>
        <mxCell id="lPp1sTcMWEoaJZxOKv3c-72" value="服务2" style="rounded=1;whiteSpace=wrap;html=1;strokeWidth=2;fillWeight=4;hachureGap=8;hachureAngle=45;shadow=0;sketch=1;curveFitting=1;jiggle=2;recursiveResize=1;" parent="1" vertex="1">
          <mxGeometry x="41" y="1000" width="70" height="40" as="geometry" />
        </mxCell>
        <mxCell id="lPp1sTcMWEoaJZxOKv3c-73" value="服务N" style="rounded=1;whiteSpace=wrap;html=1;strokeWidth=2;fillWeight=4;hachureGap=8;hachureAngle=45;shadow=0;sketch=1;curveFitting=1;jiggle=2;recursiveResize=1;" parent="1" vertex="1">
          <mxGeometry x="41" y="1080" width="70" height="40" as="geometry" />
        </mxCell>
        <mxCell id="lPp1sTcMWEoaJZxOKv3c-74" value="&lt;span style=&quot;&quot;&gt;...&lt;/span&gt;" style="text;strokeColor=none;fillColor=none;html=1;fontSize=24;fontStyle=0;verticalAlign=middle;align=center;" parent="1" vertex="1">
          <mxGeometry x="31" y="1040" width="80" height="30" as="geometry" />
        </mxCell>
        <mxCell id="lPp1sTcMWEoaJZxOKv3c-76" value="负载均衡器" style="rounded=1;whiteSpace=wrap;html=1;strokeWidth=2;fillWeight=4;hachureGap=8;hachureAngle=45;shadow=0;sketch=1;curveFitting=1;jiggle=2;" parent="1" vertex="1">
          <mxGeometry x="147" y="997" width="70" height="42" as="geometry" />
        </mxCell>
        <mxCell id="lPp1sTcMWEoaJZxOKv3c-70" style="rounded=0;orthogonalLoop=1;jettySize=auto;html=1;exitX=1;exitY=0.5;exitDx=0;exitDy=0;entryX=0;entryY=0.25;entryDx=0;entryDy=0;" parent="1" source="lPp1sTcMWEoaJZxOKv3c-71" target="lPp1sTcMWEoaJZxOKv3c-76" edge="1">
          <mxGeometry relative="1" as="geometry">
            <mxPoint x="180" y="1010" as="targetPoint" />
          </mxGeometry>
        </mxCell>
        <mxCell id="lPp1sTcMWEoaJZxOKv3c-77" style="rounded=0;orthogonalLoop=1;jettySize=auto;html=1;exitX=1;exitY=0.5;exitDx=0;exitDy=0;entryX=0;entryY=0.5;entryDx=0;entryDy=0;" parent="1" source="lPp1sTcMWEoaJZxOKv3c-72" target="lPp1sTcMWEoaJZxOKv3c-76" edge="1">
          <mxGeometry relative="1" as="geometry">
            <mxPoint x="121" y="960" as="sourcePoint" />
            <mxPoint x="200" y="1030" as="targetPoint" />
          </mxGeometry>
        </mxCell>
        <mxCell id="lPp1sTcMWEoaJZxOKv3c-78" style="rounded=0;orthogonalLoop=1;jettySize=auto;html=1;exitX=1;exitY=0.5;exitDx=0;exitDy=0;" parent="1" source="lPp1sTcMWEoaJZxOKv3c-73" edge="1">
          <mxGeometry relative="1" as="geometry">
            <mxPoint x="121" y="960" as="sourcePoint" />
            <mxPoint x="141" y="1299" as="targetPoint" />
          </mxGeometry>
        </mxCell>
        <mxCell id="lPp1sTcMWEoaJZxOKv3c-84" value="消息队列" style="shape=partialRectangle;whiteSpace=wrap;html=1;left=0;right=0;fillColor=#f5f5f5;strokeColor=#666666;shadow=0;fontColor=#333333;" parent="1" vertex="1">
          <mxGeometry x="446" y="1005.88" width="67" height="25.12" as="geometry" />
        </mxCell>
        <mxCell id="lPp1sTcMWEoaJZxOKv3c-85" value="" style="group" parent="1" vertex="1" connectable="0">
          <mxGeometry x="242" y="963.25" width="174" height="109.5" as="geometry" />
        </mxCell>
        <mxCell id="lPp1sTcMWEoaJZxOKv3c-86" value="" style="rounded=1;whiteSpace=wrap;html=1;strokeWidth=2;fillWeight=4;hachureGap=8;hachureAngle=45;shadow=0;dashed=1;" parent="lPp1sTcMWEoaJZxOKv3c-85" vertex="1">
          <mxGeometry width="174" height="109.5" as="geometry" />
        </mxCell>
        <mxCell id="lPp1sTcMWEoaJZxOKv3c-87" value="计数服务器" style="text;html=1;align=center;verticalAlign=middle;resizable=0;points=[];autosize=1;strokeColor=none;fillColor=none;" parent="lPp1sTcMWEoaJZxOKv3c-85" vertex="1">
          <mxGeometry x="25.777777777777775" y="82.57377049180329" width="78" height="26" as="geometry" />
        </mxCell>
        <mxCell id="lPp1sTcMWEoaJZxOKv3c-88" value="" style="rounded=1;whiteSpace=wrap;html=1;strokeWidth=2;fillWeight=4;hachureGap=8;hachureAngle=45;sketch=1;fillColor=#d5e8d4;strokeColor=#82b366;" parent="lPp1sTcMWEoaJZxOKv3c-85" vertex="1">
          <mxGeometry x="13.809523809523808" y="9.872950819672132" width="24.857142857142854" height="67.31557377049181" as="geometry" />
        </mxCell>
        <mxCell id="lPp1sTcMWEoaJZxOKv3c-89" value="" style="rounded=1;whiteSpace=wrap;html=1;strokeWidth=2;fillWeight=4;hachureGap=8;hachureAngle=45;sketch=1;fillColor=#d5e8d4;strokeColor=#82b366;" parent="lPp1sTcMWEoaJZxOKv3c-85" vertex="1">
          <mxGeometry x="46.03174603174603" y="11.668032786885247" width="24.857142857142854" height="67.31557377049181" as="geometry" />
        </mxCell>
        <mxCell id="lPp1sTcMWEoaJZxOKv3c-90" value="" style="rounded=1;whiteSpace=wrap;html=1;strokeWidth=2;fillWeight=4;hachureGap=8;hachureAngle=45;sketch=1;fillColor=#d5e8d4;strokeColor=#82b366;" parent="lPp1sTcMWEoaJZxOKv3c-85" vertex="1">
          <mxGeometry x="80.09523809523809" y="11.668032786885247" width="24.857142857142854" height="67.31557377049181" as="geometry" />
        </mxCell>
        <mxCell id="lPp1sTcMWEoaJZxOKv3c-91" value="身份校验" style="rounded=0;whiteSpace=wrap;html=1;" parent="lPp1sTcMWEoaJZxOKv3c-85" vertex="1">
          <mxGeometry x="113.23809523809523" y="23.336065573770494" width="49.71428571428571" height="19.745901639344265" as="geometry" />
        </mxCell>
        <mxCell id="lPp1sTcMWEoaJZxOKv3c-92" value="流量控制" style="rounded=0;whiteSpace=wrap;html=1;" parent="lPp1sTcMWEoaJZxOKv3c-85" vertex="1">
          <mxGeometry x="113.23809523809523" y="54.75" width="49.71428571428571" height="19.745901639344265" as="geometry" />
        </mxCell>
        <mxCell id="lPp1sTcMWEoaJZxOKv3c-75" style="rounded=0;orthogonalLoop=1;jettySize=auto;html=1;exitX=1;exitY=0.5;exitDx=0;exitDy=0;entryX=0;entryY=0.5;entryDx=0;entryDy=0;" parent="1" source="lPp1sTcMWEoaJZxOKv3c-76" target="lPp1sTcMWEoaJZxOKv3c-86" edge="1">
          <mxGeometry relative="1" as="geometry" />
        </mxCell>
        <mxCell id="lPp1sTcMWEoaJZxOKv3c-79" value="" style="edgeStyle=orthogonalEdgeStyle;rounded=0;orthogonalLoop=1;jettySize=auto;html=1;" parent="1" source="lPp1sTcMWEoaJZxOKv3c-86" target="lPp1sTcMWEoaJZxOKv3c-84" edge="1">
          <mxGeometry relative="1" as="geometry" />
        </mxCell>
        <mxCell id="lPp1sTcMWEoaJZxOKv3c-93" value="" style="group" parent="1" vertex="1" connectable="0">
          <mxGeometry x="548" y="982.75" width="100" height="76" as="geometry" />
        </mxCell>
        <mxCell id="lPp1sTcMWEoaJZxOKv3c-94" value="" style="rounded=1;whiteSpace=wrap;html=1;strokeWidth=2;fillWeight=4;hachureGap=8;hachureAngle=45;shadow=0;dashed=1;" parent="lPp1sTcMWEoaJZxOKv3c-93" vertex="1">
          <mxGeometry width="100" height="73.03896103896105" as="geometry" />
        </mxCell>
        <mxCell id="lPp1sTcMWEoaJZxOKv3c-95" value="" style="rounded=1;whiteSpace=wrap;html=1;strokeWidth=2;fillWeight=4;hachureGap=8;hachureAngle=45;sketch=1;fillColor=#dae8fc;strokeColor=#6c8ebf;" parent="lPp1sTcMWEoaJZxOKv3c-93" vertex="1">
          <mxGeometry x="11.278195488721803" y="7.238095238095238" width="20.300751879699245" height="49.35064935064935" as="geometry" />
        </mxCell>
        <mxCell id="lPp1sTcMWEoaJZxOKv3c-96" value="" style="rounded=1;whiteSpace=wrap;html=1;strokeWidth=2;fillWeight=4;hachureGap=8;hachureAngle=45;sketch=1;fillColor=#dae8fc;strokeColor=#6c8ebf;" parent="lPp1sTcMWEoaJZxOKv3c-93" vertex="1">
          <mxGeometry x="37.59398496240601" y="8.554112554112553" width="20.300751879699245" height="49.35064935064935" as="geometry" />
        </mxCell>
        <mxCell id="lPp1sTcMWEoaJZxOKv3c-97" value="" style="rounded=1;whiteSpace=wrap;html=1;strokeWidth=2;fillWeight=4;hachureGap=8;hachureAngle=45;sketch=1;fillColor=#dae8fc;strokeColor=#6c8ebf;" parent="lPp1sTcMWEoaJZxOKv3c-93" vertex="1">
          <mxGeometry x="65.41353383458646" y="8.554112554112553" width="20.300751879699245" height="49.35064935064935" as="geometry" />
        </mxCell>
        <mxCell id="lPp1sTcMWEoaJZxOKv3c-98" value="Worker" style="text;html=1;align=center;verticalAlign=middle;resizable=0;points=[];autosize=1;strokeColor=none;fillColor=none;" parent="lPp1sTcMWEoaJZxOKv3c-93" vertex="1">
          <mxGeometry x="16.99578947368421" y="53.001774891774886" width="56" height="26" as="geometry" />
        </mxCell>
        <mxCell id="lPp1sTcMWEoaJZxOKv3c-83" style="edgeStyle=orthogonalEdgeStyle;rounded=0;orthogonalLoop=1;jettySize=auto;html=1;exitX=1;exitY=0.5;exitDx=0;exitDy=0;entryX=0;entryY=0.5;entryDx=0;entryDy=0;" parent="1" source="lPp1sTcMWEoaJZxOKv3c-84" target="lPp1sTcMWEoaJZxOKv3c-94" edge="1">
          <mxGeometry relative="1" as="geometry" />
        </mxCell>
        <mxCell id="lPp1sTcMWEoaJZxOKv3c-99" value="" style="edgeStyle=orthogonalEdgeStyle;rounded=0;orthogonalLoop=1;jettySize=auto;html=1;" parent="1" source="lPp1sTcMWEoaJZxOKv3c-94" target="lPp1sTcMWEoaJZxOKv3c-107" edge="1">
          <mxGeometry relative="1" as="geometry" />
        </mxCell>
        <mxCell id="lPp1sTcMWEoaJZxOKv3c-100" value="" style="group" parent="1" vertex="1" connectable="0">
          <mxGeometry x="297.75" y="1098" width="51" height="51" as="geometry" />
        </mxCell>
        <mxCell id="lPp1sTcMWEoaJZxOKv3c-101" value="cache" style="whiteSpace=wrap;html=1;aspect=fixed;sketch=1;curveFitting=1;jiggle=2;" parent="lPp1sTcMWEoaJZxOKv3c-100" vertex="1">
          <mxGeometry width="41" height="41" as="geometry" />
        </mxCell>
        <mxCell id="lPp1sTcMWEoaJZxOKv3c-102" value="cache" style="whiteSpace=wrap;html=1;aspect=fixed;sketch=1;curveFitting=1;jiggle=2;" parent="lPp1sTcMWEoaJZxOKv3c-100" vertex="1">
          <mxGeometry x="10" y="10" width="41" height="41" as="geometry" />
        </mxCell>
        <mxCell id="lPp1sTcMWEoaJZxOKv3c-80" value="" style="rounded=0;orthogonalLoop=1;jettySize=auto;html=1;exitX=0.444;exitY=1.033;exitDx=0;exitDy=0;exitPerimeter=0;" parent="1" source="lPp1sTcMWEoaJZxOKv3c-86" target="lPp1sTcMWEoaJZxOKv3c-101" edge="1">
          <mxGeometry relative="1" as="geometry" />
        </mxCell>
        <mxCell id="lPp1sTcMWEoaJZxOKv3c-103" value="" style="group" parent="1" vertex="1" connectable="0">
          <mxGeometry x="296" y="1169" width="55.75" height="70" as="geometry" />
        </mxCell>
        <mxCell id="lPp1sTcMWEoaJZxOKv3c-104" value="会话DB" style="shape=cylinder3;whiteSpace=wrap;html=1;boundedLbl=1;backgroundOutline=1;size=15;fillColor=#dae8fc;strokeColor=#6c8ebf;" parent="lPp1sTcMWEoaJZxOKv3c-103" vertex="1">
          <mxGeometry width="45.5" height="62" as="geometry" />
        </mxCell>
        <mxCell id="lPp1sTcMWEoaJZxOKv3c-105" value="会话DB" style="shape=cylinder3;whiteSpace=wrap;html=1;boundedLbl=1;backgroundOutline=1;size=15;fillColor=#dae8fc;strokeColor=#6c8ebf;" parent="lPp1sTcMWEoaJZxOKv3c-103" vertex="1">
          <mxGeometry x="10.25" y="8" width="45.5" height="62" as="geometry" />
        </mxCell>
        <mxCell id="lPp1sTcMWEoaJZxOKv3c-81" value="" style="edgeStyle=orthogonalEdgeStyle;rounded=0;orthogonalLoop=1;jettySize=auto;html=1;" parent="1" source="lPp1sTcMWEoaJZxOKv3c-101" target="lPp1sTcMWEoaJZxOKv3c-104" edge="1">
          <mxGeometry relative="1" as="geometry" />
        </mxCell>
        <mxCell id="lPp1sTcMWEoaJZxOKv3c-106" value="" style="group" parent="1" vertex="1" connectable="0">
          <mxGeometry x="678" y="997.5" width="47" height="49.379999999999995" as="geometry" />
        </mxCell>
        <mxCell id="lPp1sTcMWEoaJZxOKv3c-107" value="cache" style="whiteSpace=wrap;html=1;aspect=fixed;sketch=1;curveFitting=1;jiggle=2;" parent="lPp1sTcMWEoaJZxOKv3c-106" vertex="1">
          <mxGeometry width="41" height="41" as="geometry" />
        </mxCell>
        <mxCell id="lPp1sTcMWEoaJZxOKv3c-108" value="cache" style="whiteSpace=wrap;html=1;aspect=fixed;sketch=1;curveFitting=1;jiggle=2;" parent="lPp1sTcMWEoaJZxOKv3c-106" vertex="1">
          <mxGeometry x="6" y="8.379999999999995" width="41" height="41" as="geometry" />
        </mxCell>
        <mxCell id="lPp1sTcMWEoaJZxOKv3c-109" value="" style="group" parent="1" vertex="1" connectable="0">
          <mxGeometry x="749" y="978" width="67" height="92" as="geometry" />
        </mxCell>
        <mxCell id="lPp1sTcMWEoaJZxOKv3c-110" value="DB" style="shape=cylinder3;whiteSpace=wrap;html=1;boundedLbl=1;backgroundOutline=1;size=15;fillColor=#dae8fc;strokeColor=#6c8ebf;" parent="lPp1sTcMWEoaJZxOKv3c-109" vertex="1">
          <mxGeometry width="60" height="80" as="geometry" />
        </mxCell>
        <mxCell id="lPp1sTcMWEoaJZxOKv3c-111" value="DB" style="shape=cylinder3;whiteSpace=wrap;html=1;boundedLbl=1;backgroundOutline=1;size=15;fillColor=#dae8fc;strokeColor=#6c8ebf;" parent="lPp1sTcMWEoaJZxOKv3c-109" vertex="1">
          <mxGeometry x="7" y="12" width="60" height="80" as="geometry" />
        </mxCell>
        <mxCell id="lPp1sTcMWEoaJZxOKv3c-82" value="" style="edgeStyle=orthogonalEdgeStyle;rounded=0;orthogonalLoop=1;jettySize=auto;html=1;" parent="1" source="lPp1sTcMWEoaJZxOKv3c-107" target="lPp1sTcMWEoaJZxOKv3c-110" edge="1">
          <mxGeometry relative="1" as="geometry" />
        </mxCell>
        <mxCell id="lPp1sTcMWEoaJZxOKv3c-120" style="edgeStyle=orthogonalEdgeStyle;rounded=0;orthogonalLoop=1;jettySize=auto;html=1;exitX=0.5;exitY=0;exitDx=0;exitDy=0;entryX=0.5;entryY=0;entryDx=0;entryDy=0;" parent="1" source="lPp1sTcMWEoaJZxOKv3c-50" target="lPp1sTcMWEoaJZxOKv3c-47" edge="1">
          <mxGeometry relative="1" as="geometry" />
        </mxCell>
        <mxCell id="lPp1sTcMWEoaJZxOKv3c-121" value="错误时重试" style="edgeLabel;html=1;align=center;verticalAlign=middle;resizable=0;points=[];" parent="lPp1sTcMWEoaJZxOKv3c-120" vertex="1" connectable="0">
          <mxGeometry x="-0.053" y="-1" relative="1" as="geometry">
            <mxPoint as="offset" />
          </mxGeometry>
        </mxCell>
        <mxCell id="lPp1sTcMWEoaJZxOKv3c-122" value="数据分析服务" style="rounded=0;whiteSpace=wrap;html=1;" parent="1" vertex="1">
          <mxGeometry x="401" y="446" width="88" height="32" as="geometry" />
        </mxCell>
        <mxCell id="lPp1sTcMWEoaJZxOKv3c-123" style="edgeStyle=orthogonalEdgeStyle;rounded=0;orthogonalLoop=1;jettySize=auto;html=1;exitX=0.5;exitY=0;exitDx=0;exitDy=0;entryX=0;entryY=0.5;entryDx=0;entryDy=0;" parent="1" source="lPp1sTcMWEoaJZxOKv3c-24" target="lPp1sTcMWEoaJZxOKv3c-122" edge="1">
          <mxGeometry relative="1" as="geometry" />
        </mxCell>
        <mxCell id="lPp1sTcMWEoaJZxOKv3c-124" value="请求数" style="edgeLabel;html=1;align=center;verticalAlign=middle;resizable=0;points=[];" parent="lPp1sTcMWEoaJZxOKv3c-123" vertex="1" connectable="0">
          <mxGeometry x="-0.2224" relative="1" as="geometry">
            <mxPoint as="offset" />
          </mxGeometry>
        </mxCell>
        <mxCell id="lPp1sTcMWEoaJZxOKv3c-125" style="edgeStyle=orthogonalEdgeStyle;rounded=0;orthogonalLoop=1;jettySize=auto;html=1;exitX=1;exitY=0.25;exitDx=0;exitDy=0;entryX=1;entryY=0.5;entryDx=0;entryDy=0;" parent="1" source="lPp1sTcMWEoaJZxOKv3c-50" target="lPp1sTcMWEoaJZxOKv3c-122" edge="1">
          <mxGeometry relative="1" as="geometry">
            <mxPoint x="663" y="425" as="targetPoint" />
          </mxGeometry>
        </mxCell>
        <mxCell id="lPp1sTcMWEoaJZxOKv3c-126" value="队列中的请求数、操作结果" style="edgeLabel;html=1;align=center;verticalAlign=middle;resizable=0;points=[];" parent="lPp1sTcMWEoaJZxOKv3c-125" vertex="1" connectable="0">
          <mxGeometry x="0.415" relative="1" as="geometry">
            <mxPoint as="offset" />
          </mxGeometry>
        </mxCell>
        <mxCell id="qmL31N9KsRgjp5trWpNl-9" style="edgeStyle=orthogonalEdgeStyle;rounded=0;orthogonalLoop=1;jettySize=auto;html=1;exitX=0.5;exitY=0;exitDx=0;exitDy=0;exitPerimeter=0;entryX=0.5;entryY=1;entryDx=0;entryDy=0;" edge="1" parent="1" source="qmL31N9KsRgjp5trWpNl-1" target="qmL31N9KsRgjp5trWpNl-2">
          <mxGeometry relative="1" as="geometry" />
        </mxCell>
        <mxCell id="qmL31N9KsRgjp5trWpNl-1" value="" style="shape=umlActor;verticalLabelPosition=bottom;verticalAlign=top;html=1;outlineConnect=0;" vertex="1" parent="1">
          <mxGeometry x="695" y="721" width="9" height="25" as="geometry" />
        </mxCell>
        <mxCell id="qmL31N9KsRgjp5trWpNl-7" value="" style="edgeStyle=orthogonalEdgeStyle;rounded=0;orthogonalLoop=1;jettySize=auto;html=1;" edge="1" parent="1" source="qmL31N9KsRgjp5trWpNl-2" target="lPp1sTcMWEoaJZxOKv3c-66">
          <mxGeometry relative="1" as="geometry" />
        </mxCell>
        <mxCell id="qmL31N9KsRgjp5trWpNl-2" value="计数类型配置管理" style="rounded=1;whiteSpace=wrap;html=1;strokeWidth=2;fillWeight=4;hachureGap=8;hachureAngle=45;fillColor=#f5f5f5;fontColor=#333333;strokeColor=#666666;sketch=1;curveFitting=1;jiggle=2;" vertex="1" parent="1">
          <mxGeometry x="660" y="649" width="79" height="46" as="geometry" />
        </mxCell>
      </root>
    </mxGraphModel>
  </diagram>
</mxfile>
